HIERARCHY
ROOT hip
{
  OFFSET 0 90.174 2.4664
  CHANNELS 6 Xposition Yposition Zposition Zrotation Xrotation Yrotation
  JOINT abdomen
  {
    OFFSET 0 -1.186 -1.5018
    CHANNELS 6 Xposition Yposition Zposition Zrotation Xrotation Yrotation
    JOINT abdomen2
    {
      OFFSET 0 9.964 0.2134
      CHANNELS 6 Xposition Yposition Zposition Zrotation Xrotation Yrotation
      JOINT chest
      {
        OFFSET 0 13.134 -3.2573
        CHANNELS 6 Xposition Yposition Zposition Zrotation Xrotation Yrotation
        JOINT neck
        {
          OFFSET 0 20.686 -1.6905
          CHANNELS 6 Xposition Yposition Zposition Zrotation Xrotation Yrotation
          JOINT head
          {
            OFFSET 0 7.238 -0.1237
            CHANNELS 6 Xposition Yposition Zposition Zrotation Xrotation Yrotation
            End Site
            {
              OFFSET 0 0 0
            }
          }
        }
        JOINT lCollar
        {
          OFFSET 1.7069 20.075 5.0056
          CHANNELS 6 Xposition Yposition Zposition Zrotation Xrotation Yrotation
          JOINT lShldr
          {
            OFFSET 13.6458 -0.047 -4.849
            CHANNELS 6 Xposition Yposition Zposition Zrotation Xrotation Yrotation
            JOINT lForeArm
            {
              OFFSET 28.3255 -0.9759 2.2888
              CHANNELS 6 Xposition Yposition Zposition Zrotation Xrotation Yrotation
              JOINT lHand
              {
                OFFSET 22.1583 -0.53 10.8316
                CHANNELS 6 Xposition Yposition Zposition Zrotation Xrotation Yrotation
                JOINT lThumb1
                {
                  OFFSET 0.786 0.112 2.5817
                  CHANNELS 6 Xposition Yposition Zposition Zrotation Xrotation Yrotation
                  JOINT lThumb2
                  {
                    OFFSET 0.3601 -0.878 4.2331
                    CHANNELS 6 Xposition Yposition Zposition Zrotation Xrotation Yrotation
                    JOINT lThumb2_End
                    {
                      OFFSET 1.8127 -1.216 2.2227
                      CHANNELS 6 Xposition Yposition Zposition Zrotation Xrotation Yrotation
                      End Site
                      {
                        OFFSET 0.0181 -0.0122 0.0222
                      }
                    }
                  }
                }
                JOINT lCarpal1
                {
                  OFFSET 0.9571 1.114 1.7695
                  CHANNELS 6 Xposition Yposition Zposition Zrotation Xrotation Yrotation
                  JOINT lIndex1
                  {
                    OFFSET 4.1246 0.487 4.1451
                    CHANNELS 6 Xposition Yposition Zposition Zrotation Xrotation Yrotation
                    JOINT lIndex2
                    {
                      OFFSET 3.4052 -1.454 2.7682
                      CHANNELS 6 Xposition Yposition Zposition Zrotation Xrotation Yrotation
                      JOINT lIndex2_End
                      {
                        OFFSET 1.4531 -1.795 1.2713
                        CHANNELS 6 Xposition Yposition Zposition Zrotation Xrotation Yrotation
                        End Site
                        {
                          OFFSET 0.0145 -0.0179 0.0127
                        }
                      }
                    }
                  }
                  JOINT lMid1
                  {
                    OFFSET 5.6954 0.21 2.1184
                    CHANNELS 6 Xposition Yposition Zposition Zrotation Xrotation Yrotation
                    JOINT lMid2
                    {
                      OFFSET 3.9766 -1.54 2.3863
                      CHANNELS 6 Xposition Yposition Zposition Zrotation Xrotation Yrotation
                      JOINT lMid2_End
                      {
                        OFFSET 1.4042 -1.926 1.125
                        CHANNELS 6 Xposition Yposition Zposition Zrotation Xrotation Yrotation
                        End Site
                        {
                          OFFSET 0.014 -0.0193 0.0113
                        }
                      }
                    }
                  }
                }
                JOINT lCarpal2
                {
                  OFFSET 2.0956 0.66 -0.3894
                  CHANNELS 6 Xposition Yposition Zposition Zrotation Xrotation Yrotation
                  JOINT lRing1
                  {
                    OFFSET 5.0395 -0.09 2.4971
                    CHANNELS 6 Xposition Yposition Zposition Zrotation Xrotation Yrotation
                    JOINT lRing2
                    {
                      OFFSET 3.7921 -1.552 1.4806
                      CHANNELS 6 Xposition Yposition Zposition Zrotation Xrotation Yrotation
                      JOINT lRing2_End
                      {
                        OFFSET 1.4655 -1.808 0.9609
                        CHANNELS 6 Xposition Yposition Zposition Zrotation Xrotation Yrotation
                        End Site
                        {
                          OFFSET 0.0147 -0.0181 0.0096
                        }
                      }
                    }
                  }
                  JOINT lPinky1
                  {
                    OFFSET 4.9141 -1.269 0.3591
                    CHANNELS 6 Xposition Yposition Zposition Zrotation Xrotation Yrotation
                    JOINT lPinky2
                    {
                      OFFSET 3.1477 -1.685 0.8462
                      CHANNELS 6 Xposition Yposition Zposition Zrotation Xrotation Yrotation
                      JOINT lPinky2_End
                      {
                        OFFSET 0.8055 -1.585 0.7955
                        CHANNELS 6 Xposition Yposition Zposition Zrotation Xrotation Yrotation
                        End Site
                        {
                          OFFSET 0.0081 -0.0158 0.008
                        }
                      }
                    }
                  }
                }
              }
            }
          }
        }
        JOINT rCollar
        {
          OFFSET -1.7069 20.075 5.0056
          CHANNELS 6 Xposition Yposition Zposition Zrotation Xrotation Yrotation
          JOINT rShldr
          {
            OFFSET -13.6458 -0.047 -4.849
            CHANNELS 6 Xposition Yposition Zposition Zrotation Xrotation Yrotation
            JOINT rForeArm
            {
              OFFSET -28.3255 -0.9759 2.2888
              CHANNELS 6 Xposition Yposition Zposition Zrotation Xrotation Yrotation
              JOINT rHand
              {
                OFFSET -22.1583 -0.53 10.8316
                CHANNELS 6 Xposition Yposition Zposition Zrotation Xrotation Yrotation
                JOINT rThumb1
                {
                  OFFSET -0.786 0.112 2.5817
                  CHANNELS 6 Xposition Yposition Zposition Zrotation Xrotation Yrotation
                  JOINT rThumb2
                  {
                    OFFSET -0.3601 -0.878 4.2331
                    CHANNELS 6 Xposition Yposition Zposition Zrotation Xrotation Yrotation
                    JOINT rThumb2_End
                    {
                      OFFSET -1.8127 -1.216 2.2227
                      CHANNELS 6 Xposition Yposition Zposition Zrotation Xrotation Yrotation
                      End Site
                      {
                        OFFSET -0.0181 -0.0122 0.0222
                      }
                    }
                  }
                }
                JOINT rCarpal1
                {
                  OFFSET -0.9571 1.114 1.7695
                  CHANNELS 6 Xposition Yposition Zposition Zrotation Xrotation Yrotation
                  JOINT rIndex1
                  {
                    OFFSET -4.1246 0.487 4.1451
                    CHANNELS 6 Xposition Yposition Zposition Zrotation Xrotation Yrotation
                    JOINT rIndex2
                    {
                      OFFSET -3.4052 -1.454 2.7682
                      CHANNELS 6 Xposition Yposition Zposition Zrotation Xrotation Yrotation
                      JOINT rIndex2_End
                      {
                        OFFSET -1.4531 -1.795 1.2713
                        CHANNELS 6 Xposition Yposition Zposition Zrotation Xrotation Yrotation
                        End Site
                        {
                          OFFSET -0.0145 -0.018 0.0127
                        }
                      }
                    }
                  }
                  JOINT rMid1
                  {
                    OFFSET -5.6954 0.21 2.1184
                    CHANNELS 6 Xposition Yposition Zposition Zrotation Xrotation Yrotation
                    JOINT rMid2
                    {
                      OFFSET -3.9766 -1.54 2.3863
                      CHANNELS 6 Xposition Yposition Zposition Zrotation Xrotation Yrotation
                      JOINT rMid2_End
                      {
                        OFFSET -1.4042 -1.926 1.125
                        CHANNELS 6 Xposition Yposition Zposition Zrotation Xrotation Yrotation
                        End Site
                        {
                          OFFSET -0.014 -0.0193 0.0113
                        }
                      }
                    }
                  }
                }
                JOINT rCarpal2
                {
                  OFFSET -2.0956 0.66 -0.3894
                  CHANNELS 6 Xposition Yposition Zposition Zrotation Xrotation Yrotation
                  JOINT rRing1
                  {
                    OFFSET -5.0395 -0.09 2.4971
                    CHANNELS 6 Xposition Yposition Zposition Zrotation Xrotation Yrotation
                    JOINT rRing2
                    {
                      OFFSET -3.7921 -1.552 1.4806
                      CHANNELS 6 Xposition Yposition Zposition Zrotation Xrotation Yrotation
                      JOINT rRing2_End
                      {
                        OFFSET -1.4655 -1.808 0.9609
                        CHANNELS 6 Xposition Yposition Zposition Zrotation Xrotation Yrotation
                        End Site
                        {
                          OFFSET -0.0147 -0.0181 0.0096
                        }
                      }
                    }
                  }
                  JOINT rPinky1
                  {
                    OFFSET -4.9141 -1.269 0.3592
                    CHANNELS 6 Xposition Yposition Zposition Zrotation Xrotation Yrotation
                    JOINT rPinky2
                    {
                      OFFSET -3.1477 -1.685 0.8462
                      CHANNELS 6 Xposition Yposition Zposition Zrotation Xrotation Yrotation
                      JOINT rPinky2_End
                      {
                        OFFSET -0.8055 -1.585 0.7955
                        CHANNELS 6 Xposition Yposition Zposition Zrotation Xrotation Yrotation
                        End Site
                        {
                          OFFSET -0.0081 -0.0158 0.008
                        }
                      }
                    }
                  }
                }
              }
            }
          }
        }
      }
    }
  }
  JOINT lThigh
  {
    OFFSET 8.367 -8.2066 0.5982
    CHANNELS 6 Xposition Yposition Zposition Zrotation Xrotation Yrotation
    JOINT lShin
    {
      OFFSET 2.1923 -43.463 -0.4932
      CHANNELS 6 Xposition Yposition Zposition Zrotation Xrotation Yrotation
      JOINT lFoot
      {
        OFFSET 0.7333 -45.8593 -2.6451
        CHANNELS 6 Xposition Yposition Zposition Zrotation Xrotation Yrotation
        End Site
        {
          OFFSET 2.6618 -4.2699 12.3931
        }
      }
    }
  }
  JOINT rThigh
  {
    OFFSET -8.367 -8.2066 0.5982
    CHANNELS 6 Xposition Yposition Zposition Zrotation Xrotation Yrotation
    JOINT rShin
    {
      OFFSET -2.1923 -43.463 -0.4931
      CHANNELS 6 Xposition Yposition Zposition Zrotation Xrotation Yrotation
      JOINT rFoot
      {
        OFFSET -0.7333 -45.8593 -2.6451
        CHANNELS 6 Xposition Yposition Zposition Zrotation Xrotation Yrotation
        End Site
        {
          OFFSET -2.6618 -4.2699 12.3931
        }
      }
    }
  }
}
MOTION
Frames:	4
Frame Time:	0.0333333
1.65759 89.618 69.9596 -6.65829e-015 2.92415 180 2.22045e-016 -1.186 -1.5018 -0.197796 6.20713 -0.3677 -4.44089e-016 9.964 0.2134 -0.358429 12.4154 -0.720097 -8.88178e-016 13.134 -3.2573 -0.358429 12.4154 -0.720097 8.88178e-016 20.686 -1.6905 7.15075 -27.7561 3.51268 0 7.238 -0.1237 -1.26321e-006 -15.0458 1.20694e-007 1.7069 20.075 5.0056 -7.436 0.86098 -22.9098 13.6458 -0.047 -4.849 -58.138 -3.48604 -11.6014 28.3255 -0.9759 2.2888 -6.66944 15.5223 -32.4091 22.1583 -0.53 10.8316 0.929929 -0.952351 1.56504 0.786 0.112 2.5817 -9.54166e-015 -3.18055e-015 -4.77083e-015 0.3601 -0.878 4.2331 -1.11319e-014 6.36111e-015 -4.77083e-015 1.8127 -1.216 2.2227 -6.20446e-007 1.07229e-006 1.15255e-006 0.9571 1.114 1.7695 1.59028e-015 0 -1.59028e-015 4.1246 0.487 4.1451 -1.43125e-014 6.36111e-015 -7.95139e-015 3.4052 -1.454 2.7682 -1.43125e-014 3.18055e-015 -6.36111e-015 1.4531 -1.795 1.2713 -6.20446e-007 1.07229e-006 1.15255e-006 5.6954 0.21 2.1184 -1.43125e-014 6.36111e-015 -7.95139e-015 3.9766 -1.54 2.3863 -1.43125e-014 3.18055e-015 -6.36111e-015 1.4042 -1.926 1.125 -6.20446e-007 1.07229e-006 1.15255e-006 2.0956 0.66 -0.3894 1.59028e-015 0 -1.59028e-015 5.0395 -0.09 2.4971 -1.43125e-014 6.36111e-015 -7.95139e-015 3.7921 -1.552 1.4806 -1.43125e-014 3.18055e-015 -6.36111e-015 1.4655 -1.808 0.9609 -6.20446e-007 1.07229e-006 1.15255e-006 4.9141 -1.269 0.3591 -1.43125e-014 6.36111e-015 -7.95139e-015 3.1477 -1.685 0.8462 -1.43125e-014 3.18055e-015 -6.36111e-015 0.8055 -1.585 0.7955 -6.20446e-007 1.07229e-006 1.15255e-006 -1.7069 20.075 5.0056 9.44835 1.07784 24.8462 -13.6458 -0.047 -4.849 59.9583 -2.16089 10.7704 -28.3255 -0.9759 2.2888 5.5728 14.6295 32.2287 -22.1583 -0.53 10.8316 -3.86508 -0.6822 -4.15488 -0.786 0.112 2.5817 -5.63226e-007 -1.12541e-006 1.13179e-006 -0.3601 -0.878 4.2331 -1.59028e-015 6.36111e-015 -1.59028e-015 -1.8127 -1.216 2.2227 3.53113e-031 1.27222e-014 -1.59028e-015 -0.9571 1.114 1.7695 -1.59028e-015 3.18055e-015 -3.18055e-015 -4.1246 0.487 4.1451 -5.63226e-007 -1.12541e-006 1.13179e-006 -3.4052 -1.454 2.7682 2.64834e-031 9.54166e-015 -1.59028e-015 -1.4531 -1.795 1.2713 3.53113e-031 1.27222e-014 -1.59028e-015 -5.6954 0.21 2.1184 -5.63226e-007 -1.12541e-006 1.13179e-006 -3.9766 -1.54 2.3863 2.64834e-031 9.54166e-015 -1.59028e-015 -1.4042 -1.926 1.125 3.53113e-031 1.27222e-014 -1.59028e-015 -2.0956 0.66 -0.3894 -1.59028e-015 3.18055e-015 -3.18055e-015 -5.0395 -0.09 2.4971 -5.63226e-007 -1.12541e-006 1.13179e-006 -3.7921 -1.552 1.4806 2.64834e-031 9.54166e-015 -1.59028e-015 -1.4655 -1.808 0.9609 3.53113e-031 1.27222e-014 -1.59028e-015 -4.9141 -1.269 0.3592 -5.63226e-007 -1.12541e-006 1.13179e-006 -3.1477 -1.685 0.8462 2.64834e-031 9.54166e-015 -1.59028e-015 -0.8055 -1.585 0.7955 3.53113e-031 1.27222e-014 -1.59028e-015 8.367 -8.2066 0.5982 5.85347 -11.8209 10.9504 2.1923 -43.463 -0.4932 -0.590295 28.9196 0.878586 0.7333 -45.8593 -2.6451 -10.1067 -10.6163 4.33475 -8.367 -8.2066 0.5982 -2.57272 -11.9435 -8.64378 -2.1923 -43.463 -0.4931 0.530439 29.153 -0.805795 -0.7333 -45.8593 -2.6451 7.80434 -10.8917 -8.64454 
1.65779 89.5978 69.9987 -6.72909e-015 2.34726 180 2.22045e-016 -1.186 -1.5018 -0.197116 6.11192 -0.368025 0 9.964 0.2134 -0.357563 12.225 -0.720975 -8.88178e-016 13.134 -3.2573 -0.357563 12.225 -0.720975 0 20.686 -1.6905 7.10681 -27.6198 3.48378 0 7.238 -0.1237 -9.10083e-007 -15.2665 -1.79954e-007 1.7069 20.075 5.0056 -7.3372 0.98651 -22.7598 13.6458 -0.047 -4.849 -58.211 -3.42404 -11.5226 28.3255 -0.9759 2.2888 -6.76098 15.6042 -32.7685 22.1583 -0.53 10.8316 1.26167 -0.855612 1.50625 0.786 0.112 2.5817 -6.21678e-007 1.07253e-006 1.15191e-006 0.3601 -0.878 4.2331 6.21678e-007 -1.07253e-006 -1.15191e-006 1.8127 -1.216 2.2227 -6.21678e-007 1.07253e-006 1.15191e-006 0.9571 1.114 1.7695 -3.18055e-015 6.36111e-015 1.59028e-015 4.1246 0.487 4.1451 -6.21678e-007 1.07253e-006 1.15191e-006 3.4052 -1.454 2.7682 6.21678e-007 -1.07253e-006 -1.15191e-006 1.4531 -1.795 1.2713 -6.21678e-007 1.07253e-006 1.15191e-006 5.6954 0.21 2.1184 -6.21678e-007 1.07253e-006 1.15191e-006 3.9766 -1.54 2.3863 6.21678e-007 -1.07253e-006 -1.15191e-006 1.4042 -1.926 1.125 -6.21678e-007 1.07253e-006 1.15191e-006 2.0956 0.66 -0.3894 -3.18055e-015 6.36111e-015 1.59028e-015 5.0395 -0.09 2.4971 -6.21678e-007 1.07253e-006 1.15191e-006 3.7921 -1.552 1.4806 6.21678e-007 -1.07253e-006 -1.15191e-006 1.4655 -1.808 0.9609 -6.21678e-007 1.07253e-006 1.15191e-006 4.9141 -1.269 0.3591 -6.21678e-007 1.07253e-006 1.15191e-006 3.1477 -1.685 0.8462 6.21678e-007 -1.07253e-006 -1.15191e-006 0.8055 -1.585 0.7955 -6.21678e-007 1.07253e-006 1.15191e-006 -1.7069 20.075 5.0056 9.35647 1.20578 24.7014 -13.6458 -0.047 -4.849 59.9583 -2.16089 10.7704 -28.3255 -0.9759 2.2888 5.66513 14.7001 32.5697 -22.1583 -0.53 10.8316 -4.17879 -0.597745 -4.05681 -0.786 0.112 2.5817 3.18055e-015 1.27222e-014 -1.59028e-015 -0.3601 -0.878 4.2331 -1.59028e-015 3.18055e-015 -1.59028e-015 -1.8127 -1.216 2.2227 -1.59028e-015 -3.18055e-015 -3.18055e-015 -0.9571 1.114 1.7695 4.77083e-015 1.27222e-014 3.18055e-015 -4.1246 0.487 4.1451 -4.77083e-015 0 6.36111e-015 -3.4052 -1.454 2.7682 -3.18055e-015 6.36111e-015 -1.59028e-015 -1.4531 -1.795 1.2713 -2.64834e-031 -3.18055e-015 -4.77083e-015 -5.6954 0.21 2.1184 -4.77083e-015 0 6.36111e-015 -3.9766 -1.54 2.3863 -3.18055e-015 6.36111e-015 -1.59028e-015 -1.4042 -1.926 1.125 -2.64834e-031 -3.18055e-015 -4.77083e-015 -2.0956 0.66 -0.3894 4.77083e-015 1.27222e-014 3.18055e-015 -5.0395 -0.09 2.4971 -4.77083e-015 0 6.36111e-015 -3.7921 -1.552 1.4806 -3.18055e-015 6.36111e-015 -1.59028e-015 -1.4655 -1.808 0.9609 -2.64834e-031 -3.18055e-015 -4.77083e-015 -4.9141 -1.269 0.3592 -4.77083e-015 0 6.36111e-015 -3.1477 -1.685 0.8462 -3.18055e-015 6.36111e-015 -1.59028e-015 -0.8055 -1.585 0.7955 -2.64834e-031 -3.18055e-015 -4.77083e-015 8.367 -8.2066 0.5982 5.89323 -12.55 11.0901 2.1923 -43.463 -0.4932 -0.58948 28.9079 0.878643 0.7333 -45.8593 -2.6451 -10.1063 -10.6098 4.33544 -8.367 -8.2066 0.5982 -2.64118 -12.6718 -8.88392 -2.1923 -43.463 -0.4931 0.529298 29.1411 -0.806466 -0.7333 -45.8593 -2.6451 7.80744 -10.8658 -8.43192 
1.65789 89.5771 70.038 -6.79982e-015 1.77043 180 2.22045e-016 -1.186 -1.5018 -0.196436 6.01671 -0.368347 -4.44089e-016 9.964 0.2134 -0.356699 12.0345 -0.721841 0 13.134 -3.2573 -0.356699 12.0345 -0.721841 8.88178e-016 20.686 -1.6905 7.0628 -27.4829 3.45495 -1.77636e-015 7.238 -0.1237 4.24779e-007 -15.4871 1.19767e-008 1.7069 20.075 5.0056 -7.23872 1.1123 -22.6101 13.6458 -0.047 -4.849 -58.284 -3.36215 -11.4436 28.3255 -0.9759 2.2888 -6.852 15.6866 -33.1279 22.1583 -0.53 10.8316 1.59348 -0.759223 1.4469 0.786 0.112 2.5817 -3.18055e-015 6.36111e-015 -4.77083e-015 0.3601 -0.878 4.2331 2.84495e-007 5.67787e-006 -3.13979e-006 1.8127 -1.216 2.2227 -3.14036e-007 3.39895e-006 -1.58417e-006 0.9571 1.114 1.7695 -1.59028e-015 6.36111e-015 -3.18055e-015 4.1246 0.487 4.1451 -1.59028e-015 6.36111e-015 -3.18055e-015 3.4052 -1.454 2.7682 2.84495e-007 5.67787e-006 -3.13979e-006 1.4531 -1.795 1.2713 -3.14036e-007 3.39895e-006 -1.58417e-006 5.6954 0.21 2.1184 -1.59028e-015 6.36111e-015 -3.18055e-015 3.9766 -1.54 2.3863 2.84495e-007 5.67787e-006 -3.13979e-006 1.4042 -1.926 1.125 -3.14036e-007 3.39895e-006 -1.58417e-006 2.0956 0.66 -0.3894 -1.59028e-015 6.36111e-015 -3.18055e-015 5.0395 -0.09 2.4971 -1.59028e-015 6.36111e-015 -3.18055e-015 3.7921 -1.552 1.4806 2.84495e-007 5.67787e-006 -3.13979e-006 1.4655 -1.808 0.9609 -3.14036e-007 3.39895e-006 -1.58417e-006 4.9141 -1.269 0.3591 -1.59028e-015 6.36111e-015 -3.18055e-015 3.1477 -1.685 0.8462 2.84495e-007 5.67787e-006 -3.13979e-006 0.8055 -1.585 0.7955 -3.14036e-007 3.39895e-006 -1.58417e-006 -1.7069 20.075 5.0056 9.26491 1.33397 24.5568 -13.6458 -0.047 -4.849 59.9583 -2.16089 10.7704 -28.3255 -0.9759 2.2888 5.75703 14.7711 32.9106 -22.1583 -0.53 10.8316 -4.49261 -0.513848 -3.95828 -0.786 0.112 2.5817 1.11319e-014 -6.36111e-015 1.11319e-014 -0.3601 -0.878 4.2331 6.36111e-015 6.36111e-015 1.11319e-014 -1.8127 -1.216 2.2227 9.54166e-015 0 1.27222e-014 -0.9571 1.114 1.7695 1.59028e-015 -3.18055e-015 -3.18055e-015 -4.1246 0.487 4.1451 9.54166e-015 3.18055e-015 7.95139e-015 -3.4052 -1.454 2.7682 1.27222e-014 3.18055e-015 1.11319e-014 -1.4531 -1.795 1.2713 1.11319e-014 6.36111e-015 1.43125e-014 -5.6954 0.21 2.1184 9.54166e-015 3.18055e-015 7.95139e-015 -3.9766 -1.54 2.3863 1.27222e-014 3.18055e-015 1.11319e-014 -1.4042 -1.926 1.125 1.11319e-014 6.36111e-015 1.43125e-014 -2.0956 0.66 -0.3894 1.59028e-015 -3.18055e-015 -3.18055e-015 -5.0395 -0.09 2.4971 9.54166e-015 3.18055e-015 7.95139e-015 -3.7921 -1.552 1.4806 1.27222e-014 3.18055e-015 1.11319e-014 -1.4655 -1.808 0.9609 1.11319e-014 6.36111e-015 1.43125e-014 -4.9141 -1.269 0.3592 9.54166e-015 3.18055e-015 7.95139e-015 -3.1477 -1.685 0.8462 1.27222e-014 3.18055e-015 1.11319e-014 -0.8055 -1.585 0.7955 1.11319e-014 6.36111e-015 1.43125e-014 8.367 -8.2066 0.5982 5.93465 -13.2797 11.2307 2.1923 -43.463 -0.4932 -0.588376 28.8968 0.878768 0.7333 -45.8593 -2.6451 -10.1057 -10.6032 4.33615 -8.367 -8.2066 0.5982 -2.71282 -13.3993 -9.12561 -2.1923 -43.463 -0.4931 0.528212 29.1288 -0.807107 -0.7333 -45.8593 -2.6451 7.81033 -10.8398 -8.21933 
1.65792 89.5558 70.0776 -6.8705e-015 1.1937 180 2.22045e-016 -1.186 -1.5018 -0.195755 5.92152 -0.368661 0 9.964 0.2134 -0.355836 11.8442 -0.722697 0 13.134 -3.2573 -0.355836 11.8442 -0.722697 0 20.686 -1.6905 7.01904 -27.3463 3.42631 -1.77636e-015 7.238 -0.1237 -1.1215e-006 -15.7077 1.50442e-007 1.7069 20.075 5.0056 -7.14057 1.23834 -22.4605 13.6458 -0.047 -4.849 -58.3571 -3.30035 -11.3646 28.3255 -0.9759 2.2888 -6.94256 15.7696 -33.4872 22.1583 -0.53 10.8316 1.92539 -0.663183 1.38701 0.786 0.112 2.5817 -6.24081e-007 1.07302e-006 1.15065e-006 0.3601 -0.878 4.2331 -6.24081e-007 1.07302e-006 1.15065e-006 1.8127 -1.216 2.2227 -6.24081e-007 1.07302e-006 1.15065e-006 0.9571 1.114 1.7695 3.18055e-015 9.54166e-015 -0 4.1246 0.487 4.1451 -6.24081e-007 1.07302e-006 1.15065e-006 3.4052 -1.454 2.7682 -6.24081e-007 1.07302e-006 1.15065e-006 1.4531 -1.795 1.2713 -6.24081e-007 1.07302e-006 1.15065e-006 5.6954 0.21 2.1184 -6.24081e-007 1.07302e-006 1.15065e-006 3.9766 -1.54 2.3863 -6.24081e-007 1.07302e-006 1.15065e-006 1.4042 -1.926 1.125 -6.24081e-007 1.07302e-006 1.15065e-006 2.0956 0.66 -0.3894 3.18055e-015 9.54166e-015 -0 5.0395 -0.09 2.4971 -6.24081e-007 1.07302e-006 1.15065e-006 3.7921 -1.552 1.4806 -6.24081e-007 1.07302e-006 1.15065e-006 1.4655 -1.808 0.9609 -6.24081e-007 1.07302e-006 1.15065e-006 4.9141 -1.269 0.3591 -6.24081e-007 1.07302e-006 1.15065e-006 3.1477 -1.685 0.8462 -6.24081e-007 1.07302e-006 1.15065e-006 0.8055 -1.585 0.7955 -6.24081e-007 1.07302e-006 1.15065e-006 -1.7069 20.075 5.0056 9.17367 1.46238 24.4124 -13.6458 -0.047 -4.849 59.9582 -2.16089 10.7704 -28.3255 -0.9759 2.2888 5.84853 14.8427 33.2515 -22.1583 -0.53 10.8316 -4.80653 -0.430509 -3.8593 -0.786 0.112 2.5817 2.65431e-007 6.76646e-006 2.25549e-006 -0.3601 -0.878 4.2331 5.69562e-007 1.12774e-006 -1.12774e-006 -1.8127 -1.216 2.2227 5.69562e-007 1.12774e-006 -1.12774e-006 -0.9571 1.114 1.7695 -1.59028e-015 6.36111e-015 -0 -4.1246 0.487 4.1451 2.65431e-007 6.76646e-006 2.25549e-006 -3.4052 -1.454 2.7682 5.69562e-007 1.12774e-006 -1.12774e-006 -1.4531 -1.795 1.2713 5.69562e-007 1.12774e-006 -1.12774e-006 -5.6954 0.21 2.1184 2.65431e-007 6.76646e-006 2.25549e-006 -3.9766 -1.54 2.3863 5.69562e-007 1.12774e-006 -1.12774e-006 -1.4042 -1.926 1.125 5.69562e-007 1.12774e-006 -1.12774e-006 -2.0956 0.66 -0.3894 -1.59028e-015 6.36111e-015 -0 -5.0395 -0.09 2.4971 2.65431e-007 6.76646e-006 2.25549e-006 -3.7921 -1.552 1.4806 5.69562e-007 1.12774e-006 -1.12774e-006 -1.4655 -1.808 0.9609 5.69562e-007 1.12774e-006 -1.12774e-006 -4.9141 -1.269 0.3592 2.65431e-007 6.76646e-006 2.25549e-006 -3.1477 -1.685 0.8462 5.69562e-007 1.12774e-006 -1.12774e-006 -0.8055 -1.585 0.7955 5.69562e-007 1.12774e-006 -1.12774e-006 8.367 -8.2066 0.5982 5.97797 -14.0082 11.3723 2.1923 -43.463 -0.4932 -0.587478 28.8848 0.878858 0.7333 -45.8593 -2.6451 -10.1051 -10.5965 4.33685 -8.367 -8.2066 0.5982 -2.78766 -14.1265 -9.36885 -2.1923 -43.463 -0.4931 0.527079 29.1168 -0.807785 -0.7333 -45.8593 -2.6451 7.81303 -10.8139 -8.00674 
